<svg width="630" height="830" viewBox="0 0 630 830" fill="none" xmlns="http://www.w3.org/2000/svg">
<path d="M629.44 324.56V624.96C629.44 644.48 619.01 662.54 602.12 672.28L342.03 822.48C325.14 832.25 304.31 832.25 287.42 822.48L29.18 673.35L27.3 672.28C21.4 668.88 16.31 664.47 12.19 659.35C4.41001 649.78 0.0100098 637.68 0.0100098 624.96V324.56C0.0100098 305.04 10.41 286.98 27.3 277.24L287.42 127.01C304.31 117.26 325.14 117.26 342.03 127.01L602.12 277.23C619.01 286.98 629.44 305.04 629.44 324.56Z" fill="#DC4747"/>
<path d="M12.21 646.42V346C12.21 326.48 22.62 308.44 39.52 298.68L299.62 148.47C316.52 138.71 337.35 138.71 354.25 148.47L614.34 298.68C619.18 301.47 623.46 304.96 627.14 308.95C623.21 295.75 614.39 284.3 602.13 277.22L342.03 127.02C325.13 117.26 304.3 117.26 287.4 127.02L27.31 277.22C10.41 286.98 0 305.02 0 324.54V624.95C0 638.89 5.33 652.05 14.51 662C13.02 657.02 12.21 651.78 12.21 646.42Z" fill="#DD5C63"/>
<path d="M629.43 505.27V204.84C629.43 185.32 619.02 167.29 602.12 157.53L342.04 7.32C325.13 -2.44 304.3 -2.44 287.39 7.32L27.31 157.52C10.41 167.28 0 185.32 0 204.83V505.27C0 524.79 10.41 542.82 27.31 552.58L287.39 702.78C304.3 712.54 325.13 712.54 342.04 702.78L602.12 552.58C619.02 542.82 629.43 524.79 629.43 505.27Z" fill="url(#paint0_linear_552_1840)"/>
<path d="M4.14 509.4V208.99C4.14 189.47 14.55 171.43 31.45 161.67L291.54 11.46C308.44 1.7 329.27 1.7 346.17 11.46L606.26 161.67C609.56 163.58 612.61 165.81 615.38 168.3C611.6 164.1 607.15 160.44 602.12 157.53L342.03 7.32C325.13 -2.44 304.3 -2.44 287.4 7.32L27.31 157.52C10.41 167.28 0 185.32 0 204.84V505.25C0 520.96 6.75 535.7 18.19 545.94C9.28 536.06 4.14 523.11 4.14 509.4Z" fill="white"/>
<path opacity="0.5" d="M616.536 190.78C617.724 195.31 618.343 200.03 618.343 204.84V505.25C618.343 524.77 608.12 542.81 591.524 552.57L336.113 702.79C319.517 712.55 299.062 712.55 282.466 702.79L27.0549 552.58C21.703 549.43 17.0286 545.42 13.13 540.78C16.7536 554.63 25.631 566.68 38.1418 574.04L293.553 724.25C310.149 734.01 330.604 734.01 347.2 724.25L602.611 574.04C619.207 564.28 629.43 546.24 629.43 526.72V226.3C629.43 213.07 624.726 200.54 616.536 190.78Z" fill="#AA3737"/>
<path d="M218.84 221.3H231.19L246.04 245.75V221.3H258.84V267.06H246.49L231.64 242.61V267.06H218.84V221.3Z" fill="#434B5A"/>
<path d="M306.39 231.92V256.43C306.39 263.79 302.42 267.69 294.93 267.69H279.76C272.27 267.69 268.3 263.79 268.3 256.43V231.92C268.3 224.56 272.27 220.66 279.76 220.66H294.93C302.42 220.66 306.39 224.56 306.39 231.92ZM291.03 231.54H283.67C281.75 231.54 281.11 232.18 281.11 234.04V254.33C281.11 256.19 281.75 256.83 283.67 256.83H291.03C292.95 256.83 293.59 256.19 293.59 254.33V234.04C293.59 232.18 292.95 231.54 291.03 231.54Z" fill="#434B5A"/>
<path d="M343.07 221.3H361.82L375.77 267.06H362.65L360.09 258.04H344.86L342.24 267.06H329.12L343.07 221.3ZM356.95 247.15L352.47 231.47L347.93 247.15H356.95Z" fill="#434B5A"/>
<path d="M383.13 221.3H395.93V267.06H383.13V221.3Z" fill="#434B5A"/>
<path d="M302.865 586.398H291.945V578.992C294.92 578.992 297.294 578.739 299.067 578.232C300.902 577.726 302.358 576.903 303.435 575.763C304.511 574.561 305.46 572.852 306.283 570.636H313.31V637.104H302.865V586.398Z" fill="#434B5A"/>
<path d="M208.45 472.7C208.45 477.3 212.18 481 216.77 481H235.19V464.41H216.77C212.18 464.4 208.45 468.1 208.45 472.7Z" fill="#DC4747"/>
<path d="M276.8 348.89C276.8 344.32 273.07 340.59 268.48 340.59C263.88 340.59 260.18 344.32 260.18 348.89V367.31H276.8V348.89Z" fill="#DC4747"/>
<path d="M208.45 436.65C208.45 441.25 212.18 444.97 216.77 444.97H235.19V428.35H216.77C212.18 428.35 208.45 432.07 208.45 436.65Z" fill="#DC4747"/>
<path d="M312.82 348.89C312.82 344.32 309.12 340.59 304.52 340.59C299.92 340.59 296.2 344.32 296.2 348.89V367.31H312.82V348.89Z" fill="#DC4747"/>
<path d="M208.45 400.59C208.45 405.18 212.18 408.91 216.77 408.91H235.19V392.29H216.77C212.18 392.3 208.45 396.02 208.45 400.59Z" fill="#DC4747"/>
<path d="M348.87 348.89C348.87 344.32 345.14 340.59 340.57 340.59C335.97 340.59 332.25 344.32 332.25 348.89V367.31H348.87V348.89Z" fill="#DC4747"/>
<path d="M392.28 464.4H373.86V480.99H392.28C396.85 480.99 400.58 477.29 400.58 472.69C400.58 468.1 396.85 464.4 392.28 464.4Z" fill="#DC4747"/>
<path d="M392.28 428.35H373.86V444.97H392.28C396.85 444.97 400.58 441.24 400.58 436.65C400.58 432.07 396.85 428.35 392.28 428.35Z" fill="#DC4747"/>
<path d="M296.2 524.4C296.2 529 299.93 532.7 304.52 532.7C309.12 532.7 312.82 529 312.82 524.4V505.97H296.2V524.4Z" fill="#DC4747"/>
<path d="M332.26 524.4C332.26 529 335.99 532.7 340.58 532.7C345.15 532.7 348.88 529 348.88 524.4V505.97H332.26V524.4Z" fill="#DC4747"/>
<path d="M260.18 524.4C260.18 529 263.88 532.7 268.48 532.7C273.08 532.7 276.8 529 276.8 524.4V505.97H260.18V524.4Z" fill="#DC4747"/>
<path d="M293.46 429.52C292.74 427.7 292.11 426.09 291.57 424.7C291.03 423.31 290.59 422.22 290.26 421.43C289.98 422.24 289.57 423.34 289.03 424.73C288.49 426.12 287.88 427.73 287.19 429.55C286.5 431.37 285.73 433.38 284.88 435.57C284.03 437.76 283.17 440.06 282.29 442.46H298.2C297.35 440.05 296.52 437.74 295.72 435.54C294.94 433.35 294.18 431.34 293.46 429.52Z" fill="#E86262"/>
<path d="M352.43 405.46L358.14 388.5C356.58 385.04 355.46 381.58 354.68 378.03C353.3 377.51 351.83 377.25 350.27 377.25H258.82C251.21 377.25 245.15 383.31 245.15 390.92V482.37C245.15 489.9 251.29 496.04 258.82 496.04H350.27C357.8 496.04 363.94 489.9 363.94 482.37V427.17C360.31 426.13 357.02 423.88 354.77 420.77C351.57 416.28 350.7 410.74 352.43 405.46ZM305.28 464.47C304.67 462.57 304.07 460.58 303.29 458.5C302.6 456.51 301.91 454.43 301.21 452.44H279.41C278.72 454.43 278.03 456.51 277.33 458.5C276.64 460.58 275.95 462.57 275.34 464.47H262.36C264.44 458.5 266.43 452.96 268.33 447.86C270.23 442.76 272.05 438 273.87 433.5C275.6 429 277.42 424.67 279.15 420.7C280.88 416.63 282.7 412.65 284.6 408.85H296.45C298.27 412.66 300.09 416.64 301.9 420.7C303.63 424.68 305.45 429.01 307.26 433.5C308.99 438 310.9 442.76 312.71 447.86C314.61 452.96 316.6 458.5 318.68 464.47H305.28ZM338.42 464.47H325.88V408.84H338.42V464.47Z" fill="#E86262"/>
<path d="M415.79 313C387.62 313 364.79 335.84 364.79 364C364.79 372.68 366.97 380.85 370.79 388.01L363.76 409.09C362.28 413.54 366.52 417.78 370.97 416.3L392.18 409.23C394.86 410.63 397.69 411.8 400.63 412.71C400.78 412.76 400.93 412.81 401.08 412.86C401.08 412.85 401.08 412.85 401.08 412.84C405.74 414.24 410.67 415.01 415.79 415.01C443.96 415.01 466.79 392.18 466.79 364.01C466.79 335.84 443.96 313 415.79 313ZM436.05 373.32C439.07 376.34 439.07 381.24 436.05 384.26C434.54 385.77 432.56 386.53 430.58 386.53C428.6 386.53 426.62 385.78 425.11 384.26L415.79 374.94L406.47 384.26C404.96 385.77 402.98 386.53 401 386.53C399.03 386.53 397.04 385.78 395.53 384.26C392.51 381.24 392.51 376.34 395.53 373.32L404.85 364L395.53 354.68C392.51 351.66 392.51 346.76 395.53 343.74C398.55 340.72 403.45 340.72 406.47 343.74L415.79 353.05L425.11 343.74C428.13 340.72 433.03 340.72 436.05 343.74C439.07 346.76 439.07 351.66 436.05 354.68L426.73 364L436.05 373.32Z" fill="#DC4747"/>
<path d="M208.45 472.7C208.45 477.3 212.18 481 216.77 481H235.19V464.41H216.77C212.18 464.4 208.45 468.1 208.45 472.7Z" stroke="#231F20" stroke-width="6.2258" stroke-miterlimit="10" stroke-linecap="round" stroke-linejoin="round"/>
<path d="M276.8 348.89C276.8 344.32 273.07 340.59 268.48 340.59C263.88 340.59 260.18 344.32 260.18 348.89V367.31H276.8V348.89Z" stroke="#231F20" stroke-width="6.2258" stroke-miterlimit="10" stroke-linecap="round" stroke-linejoin="round"/>
<path d="M208.45 436.65C208.45 441.25 212.18 444.97 216.77 444.97H235.19V428.35H216.77C212.18 428.35 208.45 432.07 208.45 436.65Z" stroke="#231F20" stroke-width="6.2258" stroke-miterlimit="10" stroke-linecap="round" stroke-linejoin="round"/>
<path d="M312.82 348.89C312.82 344.32 309.12 340.59 304.52 340.59C299.92 340.59 296.2 344.32 296.2 348.89V367.31H312.82V348.89Z" stroke="#231F20" stroke-width="6.2258" stroke-miterlimit="10" stroke-linecap="round" stroke-linejoin="round"/>
<path d="M208.45 400.59C208.45 405.18 212.18 408.91 216.77 408.91H235.19V392.29H216.77C212.18 392.3 208.45 396.02 208.45 400.59Z" stroke="#231F20" stroke-width="6.2258" stroke-miterlimit="10" stroke-linecap="round" stroke-linejoin="round"/>
<path d="M348.87 348.89C348.87 344.32 345.14 340.59 340.57 340.59C335.97 340.59 332.25 344.32 332.25 348.89V367.31H348.87V348.89Z" stroke="#231F20" stroke-width="6.2258" stroke-miterlimit="10" stroke-linecap="round" stroke-linejoin="round"/>
<path d="M392.28 464.4H373.86V480.99H392.28C396.85 480.99 400.58 477.29 400.58 472.69C400.58 468.1 396.85 464.4 392.28 464.4Z" stroke="#231F20" stroke-width="6.2258" stroke-miterlimit="10" stroke-linecap="round" stroke-linejoin="round"/>
<path d="M392.28 428.35H373.86V444.97H392.28C396.85 444.97 400.58 441.24 400.58 436.65C400.58 432.07 396.85 428.35 392.28 428.35Z" stroke="#231F20" stroke-width="6.2258" stroke-miterlimit="10" stroke-linecap="round" stroke-linejoin="round"/>
<path d="M296.2 524.4C296.2 529 299.93 532.7 304.52 532.7C309.12 532.7 312.82 529 312.82 524.4V505.97H296.2V524.4Z" stroke="#231F20" stroke-width="6.2258" stroke-miterlimit="10" stroke-linecap="round" stroke-linejoin="round"/>
<path d="M332.26 524.4C332.26 529 335.99 532.7 340.58 532.7C345.15 532.7 348.88 529 348.88 524.4V505.97H332.26V524.4Z" stroke="#231F20" stroke-width="6.2258" stroke-miterlimit="10" stroke-linecap="round" stroke-linejoin="round"/>
<path d="M260.18 524.4C260.18 529 263.88 532.7 268.48 532.7C273.08 532.7 276.8 529 276.8 524.4V505.97H260.18V524.4Z" stroke="#231F20" stroke-width="6.2258" stroke-miterlimit="10" stroke-linecap="round" stroke-linejoin="round"/>
<path d="M293.46 429.52C292.74 427.7 292.11 426.09 291.57 424.7C291.03 423.31 290.59 422.22 290.26 421.43C289.98 422.24 289.57 423.34 289.03 424.73C288.49 426.12 287.88 427.73 287.19 429.55C286.5 431.37 285.73 433.38 284.88 435.57C284.03 437.76 283.17 440.06 282.29 442.46H298.2C297.35 440.05 296.52 437.74 295.72 435.54C294.94 433.35 294.18 431.34 293.46 429.52Z" stroke="#231F20" stroke-width="6.2258" stroke-miterlimit="10" stroke-linecap="round" stroke-linejoin="round"/>
<path d="M352.43 405.46L358.14 388.5C356.58 385.04 355.46 381.58 354.68 378.03C353.3 377.51 351.83 377.25 350.27 377.25H258.82C251.21 377.25 245.15 383.31 245.15 390.92V482.37C245.15 489.9 251.29 496.04 258.82 496.04H350.27C357.8 496.04 363.94 489.9 363.94 482.37V427.17C360.31 426.13 357.02 423.88 354.77 420.77C351.57 416.28 350.7 410.74 352.43 405.46ZM305.28 464.47C304.67 462.57 304.07 460.58 303.29 458.5C302.6 456.51 301.91 454.43 301.21 452.44H279.41C278.72 454.43 278.03 456.51 277.33 458.5C276.64 460.58 275.95 462.57 275.34 464.47H262.36C264.44 458.5 266.43 452.96 268.33 447.86C270.23 442.76 272.05 438 273.87 433.5C275.6 429 277.42 424.67 279.15 420.7C280.88 416.63 282.7 412.65 284.6 408.85H296.45C298.27 412.66 300.09 416.64 301.9 420.7C303.63 424.68 305.45 429.01 307.26 433.5C308.99 438 310.9 442.76 312.71 447.86C314.61 452.96 316.6 458.5 318.68 464.47H305.28ZM338.42 464.47H325.88V408.84H338.42V464.47Z" stroke="#231F20" stroke-width="6.2258" stroke-miterlimit="10" stroke-linecap="round" stroke-linejoin="round"/>
<path d="M415.79 313C387.62 313 364.79 335.84 364.79 364C364.79 372.68 366.97 380.85 370.79 388.01L363.76 409.09C362.28 413.54 366.52 417.78 370.97 416.3L392.18 409.23C394.86 410.63 397.69 411.8 400.63 412.71C400.78 412.76 400.93 412.81 401.08 412.86C401.08 412.85 401.08 412.85 401.08 412.84C405.74 414.24 410.67 415.01 415.79 415.01C443.96 415.01 466.79 392.18 466.79 364.01C466.79 335.84 443.96 313 415.79 313ZM436.05 373.32C439.07 376.34 439.07 381.24 436.05 384.26C434.54 385.77 432.56 386.53 430.58 386.53C428.6 386.53 426.62 385.78 425.11 384.26L415.79 374.94L406.47 384.26C404.96 385.77 402.98 386.53 401 386.53C399.03 386.53 397.04 385.78 395.53 384.26C392.51 381.24 392.51 376.34 395.53 373.32L404.85 364L395.53 354.68C392.51 351.66 392.51 346.76 395.53 343.74C398.55 340.72 403.45 340.72 406.47 343.74L415.79 353.05L425.11 343.74C428.13 340.72 433.03 340.72 436.05 343.74C439.07 346.76 439.07 351.66 436.05 354.68L426.73 364L436.05 373.32Z" stroke="#231F20" stroke-width="6.2258" stroke-miterlimit="10" stroke-linecap="round" stroke-linejoin="round"/>
<defs>
<linearGradient id="paint0_linear_552_1840" x1="70.9334" y1="111.271" x2="558.499" y2="598.837" gradientUnits="userSpaceOnUse">
<stop stop-color="#EEF1F7"/>
<stop offset="1" stop-color="white"/>
</linearGradient>
</defs>
</svg>
