<svg width="630" height="830" viewBox="0 0 630 830" fill="none" xmlns="http://www.w3.org/2000/svg">
<path d="M629.43 324.56V624.96C629.43 644.48 619 662.54 602.11 672.28L342.02 822.48C325.13 832.25 304.3 832.25 287.41 822.48L29.18 673.35L27.3 672.28C21.4 668.88 16.31 664.47 12.19 659.35C4.41 649.78 0.0100098 637.68 0.0100098 624.96V324.56C0.0100098 305.04 10.41 286.98 27.3 277.24L287.42 127.01C304.31 117.26 325.14 117.26 342.03 127.01L602.12 277.24C619.01 286.98 629.43 305.04 629.43 324.56Z" fill="#41AFE4"/>
<path d="M12.21 646.42V346C12.21 326.48 22.62 308.44 39.52 298.68L299.61 148.47C316.51 138.71 337.33 138.71 354.24 148.47L614.33 298.68C619.17 301.47 623.45 304.96 627.13 308.95C623.2 295.75 614.38 284.3 602.12 277.22L342.03 127.02C325.13 117.26 304.3 117.26 287.4 127.02L27.31 277.22C10.41 286.98 0 305.02 0 324.54V624.95C0 638.89 5.33001 652.05 14.51 662C13.02 657.01 12.21 651.78 12.21 646.42Z" fill="#3D9CC9"/>
<path d="M629.43 505.27V204.84C629.43 185.32 619.02 167.29 602.12 157.53L342.04 7.32C325.13 -2.44 304.3 -2.44 287.39 7.32L27.31 157.52C10.41 167.28 0 185.32 0 204.83V505.26C0 524.78 10.41 542.81 27.31 552.57L287.39 702.77C304.3 712.53 325.13 712.53 342.04 702.77L602.12 552.57C619.02 542.82 629.43 524.79 629.43 505.27Z" fill="url(#paint0_linear_552_1800)"/>
<path d="M4.13995 509.4V208.99C4.13995 189.47 14.55 171.43 31.45 161.67L291.54 11.46C308.44 1.7 329.27 1.7 346.17 11.46L606.26 161.67C609.56 163.58 612.61 165.81 615.38 168.3C611.6 164.1 607.15 160.44 602.12 157.53L342.03 7.32C325.13 -2.44 304.31 -2.44 287.4 7.32L27.31 157.52C10.41 167.28 0 185.32 0 204.84V505.25C0 520.96 6.75 535.7 18.19 545.94C9.28 536.06 4.13995 523.1 4.13995 509.4Z" fill="white"/>
<path opacity="0.5" d="M616.536 190.78C617.724 195.31 618.343 200.03 618.343 204.84V505.25C618.343 524.77 608.12 542.81 591.524 552.57L336.113 702.78C319.517 712.54 299.072 712.54 282.466 702.78L27.0549 552.58C21.7029 549.43 17.0286 545.42 13.13 540.78C16.7536 554.63 25.631 566.68 38.1418 574.04L293.553 724.25C310.149 734.01 330.604 734.01 347.2 724.25L602.611 574.04C619.207 564.28 629.43 546.24 629.43 526.72V226.3C629.43 213.07 624.726 200.53 616.536 190.78Z" fill="#3988AE"/>
<path d="M118.75 206.19H137.5L151.45 251.95H138.33L135.77 242.93H120.54L117.92 251.95H104.8L118.75 206.19ZM132.64 232.05L128.16 216.37L123.62 232.05H132.64Z" fill="#434B5A"/>
<path d="M158.82 206.19H171.62V251.95H158.82V206.19Z" fill="#434B5A"/>
<path d="M234.65 217.45V225.26C234.65 232.62 230.68 236.52 223.19 236.52H210.65V251.94H197.85V206.18H223.19C230.69 206.19 234.65 210.1 234.65 217.45ZM219.29 225.65C221.21 225.65 221.85 225.01 221.85 223.15V219.57C221.85 217.71 221.21 217.07 219.29 217.07H210.65V225.65H219.29Z" fill="#434B5A"/>
<path d="M242.34 206.19H255.14V241.07H274.34V251.95H242.34V206.19Z" fill="#434B5A"/>
<path d="M292.77 206.19H311.52L325.47 251.95H312.35L309.79 242.93H294.56L291.94 251.95H278.82L292.77 206.19ZM306.65 232.05L302.17 216.37L297.63 232.05H306.65Z" fill="#434B5A"/>
<path d="M332.7 206.19H345.05L359.9 230.64V206.19H372.7V251.95H360.35L345.5 227.5V251.95H332.7V206.19Z" fill="#434B5A"/>
<path d="M382.69 206.19H395.04L409.89 230.64V206.19H422.69V251.95H410.34L395.49 227.5V251.95H382.69V206.19Z" fill="#434B5A"/>
<path d="M432.8 206.19H445.6V251.95H432.8V206.19Z" fill="#434B5A"/>
<path d="M455.71 206.19H468.06L482.91 230.64V206.19H495.71V251.95H483.36L468.51 227.5V251.95H455.71V206.19Z" fill="#434B5A"/>
<path d="M505.18 241.32V216.81C505.18 209.45 509.15 205.55 516.64 205.55H531.81C539.3 205.55 543.27 209.45 543.27 216.81C543.27 217.39 543.27 217.58 543.21 217.83L530.47 219.37V218.92C530.47 217.06 529.83 216.42 527.91 216.42H520.55C518.63 216.42 517.99 217.06 517.99 218.92V239.21C517.99 241.07 518.63 241.71 520.55 241.71H527.91C529.83 241.71 530.47 241.07 530.47 239.21V235.69H522.15V224.81H543.27V241.32C543.27 248.68 539.3 252.58 531.81 252.58H516.64C509.15 252.59 505.18 248.68 505.18 241.32Z" fill="#434B5A"/>
<path d="M298.481 627.386C298.481 622.638 299.241 618.587 300.76 615.232C302.279 611.813 305.001 608.047 308.926 603.932C312.788 599.818 315.446 596.304 316.902 593.392C318.422 590.48 319.181 587.442 319.181 584.277C319.181 581.428 318.706 579.466 317.757 578.39C316.871 577.25 315.541 576.68 313.769 576.68C310.161 576.68 308.356 578.864 308.356 583.232V590.354H298.481V583.897C298.481 578.516 299.811 574.401 302.469 571.553C305.128 568.641 308.989 567.185 314.054 567.185C319.118 567.185 322.979 568.641 325.638 571.553C328.297 574.401 329.626 578.516 329.626 583.897C329.626 587.948 328.645 591.905 326.683 595.766C324.784 599.628 321.46 604.059 316.712 609.06C313.611 612.352 311.522 615.042 310.445 617.131C309.369 619.157 308.831 621.341 308.831 623.683V625.107H328.677V634.603H298.481V627.386Z" fill="#434B5A"/>
<path d="M363.14 299.13C353.59 299.13 345.91 306.81 345.91 316.36C345.91 317.14 346.01 317.84 346.11 318.62L329.87 326.59C328.1 327.48 326.92 329.35 326.92 331.42V352.68H337.75V334.77L350.84 328.37C353.99 331.52 358.32 333.59 363.14 333.59C372.69 333.59 380.37 325.81 380.37 316.36C380.37 306.8 372.69 299.13 363.14 299.13Z" fill="white"/>
<path d="M387.36 409.27H404.68C406.75 409.27 408.62 408.09 409.6 406.22L417.47 389.97C418.26 390.07 419.05 390.17 419.73 390.17C429.28 390.17 436.96 382.49 436.96 372.94C436.96 363.39 429.28 355.71 419.73 355.71C410.28 355.71 402.5 363.39 402.5 372.94C402.5 377.76 404.57 382.09 407.72 385.24L401.32 398.43H381.24L386.16 406.99C386.57 407.79 386.96 408.48 387.36 409.27Z" fill="#14A0DE"/>
<path d="M363.14 507.12C358.32 507.12 353.99 509.19 350.84 512.33L337.75 505.93V488.01H326.92V509.27C326.92 511.34 328.1 513.21 329.87 514.1L346.11 522.07C346.01 522.85 345.91 523.55 345.91 524.33C345.91 533.88 353.59 541.56 363.14 541.56C372.69 541.56 380.37 533.88 380.37 524.33C380.37 514.89 372.69 507.12 363.14 507.12Z" fill="#14A0DE"/>
<path d="M419.74 450.52C419.05 450.52 418.26 450.62 417.48 450.72L409.61 434.48C408.63 432.61 406.76 431.42 404.69 431.42H387.37C386.98 432.21 386.58 432.9 386.19 433.69L381.27 442.25H401.35L407.75 455.44C404.6 458.59 402.53 462.92 402.53 467.74C402.53 477.29 410.31 484.97 419.76 484.97C429.31 484.97 436.99 477.29 436.99 467.74C436.97 458.19 429.29 450.52 419.74 450.52Z" fill="white"/>
<path d="M244.24 431.42H226.82C224.75 431.42 222.88 432.6 222 434.48L214.03 450.72C213.24 450.62 212.55 450.52 211.77 450.52C202.22 450.52 194.54 458.2 194.54 467.75C194.54 477.3 202.22 484.98 211.77 484.98C221.22 484.98 229 477.3 229 467.75C229 462.92 227.03 458.59 223.78 455.45L230.18 442.26H250.26L245.34 433.7C244.92 432.9 244.53 432.2 244.24 431.42Z" fill="#14A0DE"/>
<path d="M293.85 505.93L280.66 512.33C277.51 509.18 273.18 507.12 268.36 507.12C258.91 507.12 251.13 514.9 251.13 524.35C251.13 533.9 258.91 541.58 268.36 541.58C277.91 541.58 285.59 533.9 285.59 524.35C285.59 523.56 285.49 522.87 285.39 522.09L301.63 514.12C303.5 513.24 304.68 511.36 304.68 509.29V488.03H293.85V505.93Z" fill="white"/>
<path d="M223.76 385.26C227.01 382.11 228.98 377.78 228.98 372.96C228.98 363.41 221.2 355.73 211.75 355.73C202.2 355.73 194.52 363.41 194.52 372.96C194.52 382.51 202.2 390.19 211.75 390.19C212.54 390.19 213.23 390.09 214.01 389.99L221.98 406.24C222.87 408.11 224.74 409.29 226.8 409.29H244.22C244.52 408.51 244.91 407.81 245.3 407.03L250.22 398.47H230.14L223.76 385.26Z" fill="white"/>
<path d="M268.35 333.58C273.17 333.58 277.5 331.51 280.65 328.36L293.84 334.76V352.67H304.67V331.41C304.67 329.34 303.49 327.47 301.62 326.58L285.38 318.61C285.48 317.83 285.58 317.13 285.58 316.35C285.58 306.8 277.9 299.12 268.35 299.12C258.9 299.12 251.12 306.8 251.12 316.35C251.13 325.8 258.9 333.58 268.35 333.58Z" fill="#14A0DE"/>
<path d="M278.38 371.41L254.69 412.45C251.87 417.34 251.87 423.36 254.69 428.25L278.38 469.29C281.2 474.18 286.42 477.19 292.06 477.19H339.45C345.09 477.19 350.31 474.18 353.13 469.29L376.82 428.25C379.64 423.36 379.64 417.34 376.82 412.45L353.13 371.41C350.31 366.52 345.09 363.51 339.45 363.51H292.06C286.42 363.51 281.21 366.52 278.38 371.41ZM310.32 456.86L284.53 445.07C281.77 443.81 280 441.05 280 438.01V405.12L310.33 418.98V456.86H310.32ZM351.52 405.12V438.01C351.52 441.05 349.75 443.8 346.99 445.07L321.2 456.86V418.99L351.52 405.12ZM318.98 384.53L344.69 396.28L315.75 409.51L286.81 396.28L312.52 384.53C314.58 383.6 316.94 383.6 318.98 384.53Z" fill="#29ABE2"/>
<path d="M363.14 299.13C353.59 299.13 345.91 306.81 345.91 316.36C345.91 317.14 346.01 317.84 346.11 318.62L329.87 326.59C328.1 327.48 326.92 329.35 326.92 331.42V352.68H337.75V334.77L350.84 328.37C353.99 331.52 358.32 333.59 363.14 333.59C372.69 333.59 380.37 325.81 380.37 316.36C380.37 306.8 372.69 299.13 363.14 299.13Z" stroke="#231F20" stroke-width="6.6884" stroke-miterlimit="10" stroke-linecap="round" stroke-linejoin="round"/>
<path d="M387.36 409.27H404.68C406.75 409.27 408.62 408.09 409.6 406.22L417.47 389.97C418.26 390.07 419.05 390.17 419.73 390.17C429.28 390.17 436.96 382.49 436.96 372.94C436.96 363.39 429.28 355.71 419.73 355.71C410.28 355.71 402.5 363.39 402.5 372.94C402.5 377.76 404.57 382.09 407.72 385.24L401.32 398.43H381.24L386.16 406.99C386.57 407.79 386.96 408.48 387.36 409.27Z" stroke="#231F20" stroke-width="6.6884" stroke-miterlimit="10" stroke-linecap="round" stroke-linejoin="round"/>
<path d="M363.14 507.12C358.32 507.12 353.99 509.19 350.84 512.33L337.75 505.93V488.01H326.92V509.27C326.92 511.34 328.1 513.21 329.87 514.1L346.11 522.07C346.01 522.85 345.91 523.55 345.91 524.33C345.91 533.88 353.59 541.56 363.14 541.56C372.69 541.56 380.37 533.88 380.37 524.33C380.37 514.89 372.69 507.12 363.14 507.12Z" stroke="#231F20" stroke-width="6.6884" stroke-miterlimit="10" stroke-linecap="round" stroke-linejoin="round"/>
<path d="M419.74 450.52C419.05 450.52 418.26 450.62 417.48 450.72L409.61 434.48C408.63 432.61 406.76 431.42 404.69 431.42H387.37C386.98 432.21 386.58 432.9 386.19 433.69L381.27 442.25H401.35L407.75 455.44C404.6 458.59 402.53 462.92 402.53 467.74C402.53 477.29 410.31 484.97 419.76 484.97C429.31 484.97 436.99 477.29 436.99 467.74C436.97 458.19 429.29 450.52 419.74 450.52Z" stroke="#231F20" stroke-width="6.6884" stroke-miterlimit="10" stroke-linecap="round" stroke-linejoin="round"/>
<path d="M244.24 431.42H226.82C224.75 431.42 222.88 432.6 222 434.48L214.03 450.72C213.24 450.62 212.55 450.52 211.77 450.52C202.22 450.52 194.54 458.2 194.54 467.75C194.54 477.3 202.22 484.98 211.77 484.98C221.22 484.98 229 477.3 229 467.75C229 462.92 227.03 458.59 223.78 455.45L230.18 442.26H250.26L245.34 433.7C244.92 432.9 244.53 432.2 244.24 431.42Z" stroke="#231F20" stroke-width="6.6884" stroke-miterlimit="10" stroke-linecap="round" stroke-linejoin="round"/>
<path d="M293.85 505.93L280.66 512.33C277.51 509.18 273.18 507.12 268.36 507.12C258.91 507.12 251.13 514.9 251.13 524.35C251.13 533.9 258.91 541.58 268.36 541.58C277.91 541.58 285.59 533.9 285.59 524.35C285.59 523.56 285.49 522.87 285.39 522.09L301.63 514.12C303.5 513.24 304.68 511.36 304.68 509.29V488.03H293.85V505.93Z" stroke="#231F20" stroke-width="6.6884" stroke-miterlimit="10" stroke-linecap="round" stroke-linejoin="round"/>
<path d="M223.76 385.26C227.01 382.11 228.98 377.78 228.98 372.96C228.98 363.41 221.2 355.73 211.75 355.73C202.2 355.73 194.52 363.41 194.52 372.96C194.52 382.51 202.2 390.19 211.75 390.19C212.54 390.19 213.23 390.09 214.01 389.99L221.98 406.24C222.87 408.11 224.74 409.29 226.8 409.29H244.22C244.52 408.51 244.91 407.81 245.3 407.03L250.22 398.47H230.14L223.76 385.26Z" stroke="#231F20" stroke-width="6.6884" stroke-miterlimit="10" stroke-linecap="round" stroke-linejoin="round"/>
<path d="M268.35 333.58C273.17 333.58 277.5 331.51 280.65 328.36L293.84 334.76V352.67H304.67V331.41C304.67 329.34 303.49 327.47 301.62 326.58L285.38 318.61C285.48 317.83 285.58 317.13 285.58 316.35C285.58 306.8 277.9 299.12 268.35 299.12C258.9 299.12 251.12 306.8 251.12 316.35C251.13 325.8 258.9 333.58 268.35 333.58Z" stroke="#231F20" stroke-width="6.6884" stroke-miterlimit="10" stroke-linecap="round" stroke-linejoin="round"/>
<path d="M278.38 371.41L254.69 412.45C251.87 417.34 251.87 423.36 254.69 428.25L278.38 469.29C281.2 474.18 286.42 477.19 292.06 477.19H339.45C345.09 477.19 350.31 474.18 353.13 469.29L376.82 428.25C379.64 423.36 379.64 417.34 376.82 412.45L353.13 371.41C350.31 366.52 345.09 363.51 339.45 363.51H292.06C286.42 363.51 281.21 366.52 278.38 371.41ZM310.32 456.86L284.53 445.07C281.77 443.81 280 441.05 280 438.01V405.12L310.33 418.98V456.86H310.32ZM351.52 405.12V438.01C351.52 441.05 349.75 443.8 346.99 445.07L321.2 456.86V418.99L351.52 405.12ZM318.98 384.53L344.69 396.28L315.75 409.51L286.81 396.28L312.52 384.53C314.58 383.6 316.94 383.6 318.98 384.53Z" stroke="#231F20" stroke-width="6.6884" stroke-miterlimit="10" stroke-linecap="round" stroke-linejoin="round"/>
<defs>
<linearGradient id="paint0_linear_552_1800" x1="70.9331" y1="111.27" x2="558.499" y2="598.836" gradientUnits="userSpaceOnUse">
<stop stop-color="#EEF1F7"/>
<stop offset="1" stop-color="white"/>
</linearGradient>
</defs>
</svg>
