<svg width="630" height="830" viewBox="0 0 630 830" fill="none" xmlns="http://www.w3.org/2000/svg">
<path d="M629.44 324.56V624.96C629.44 644.48 619.01 662.54 602.12 672.28L342.03 822.48C325.14 832.25 304.31 832.25 287.42 822.48L29.1799 673.35L27.3 672.28C21.4 668.88 16.3099 664.47 12.1899 659.35C4.40994 649.78 0.0100098 637.68 0.0100098 624.96V324.56C0.0100098 305.04 10.41 286.98 27.3 277.24L287.42 127.01C304.31 117.26 325.14 117.26 342.03 127.01L602.12 277.24C619.01 286.98 629.44 305.04 629.44 324.56Z" fill="#60386D"/>
<path d="M12.21 646.42V346C12.21 326.48 22.62 308.44 39.52 298.68L299.61 148.47C316.51 138.71 337.34 138.71 354.24 148.47L614.33 298.68C619.17 301.47 623.45 304.96 627.13 308.95C623.2 295.75 614.38 284.3 602.12 277.22L342.03 127.02C325.13 117.26 304.3 117.26 287.4 127.02L27.3099 277.22C10.4099 286.98 0 305.02 0 324.54V624.95C0 638.89 5.33001 652.05 14.51 662C13.03 657.01 12.21 651.78 12.21 646.42Z" fill="#5F2572"/>
<path d="M629.44 505.27V204.84C629.44 185.32 619.03 167.29 602.13 157.53L342.04 7.32C325.13 -2.44 304.3 -2.44 287.39 7.32L27.3099 157.52C10.4099 167.28 0 185.32 0 204.83V505.26C0 524.78 10.4099 542.81 27.3099 552.57L287.39 702.77C304.3 712.53 325.13 712.53 342.04 702.77L602.12 552.57C619.02 542.82 629.44 524.79 629.44 505.27Z" fill="url(#paint0_linear_552_1700)"/>
<path d="M4.14001 509.4V208.99C4.14001 189.47 14.55 171.43 31.45 161.67L291.54 11.46C308.44 1.7 329.27 1.7 346.17 11.46L606.26 161.67C609.56 163.58 612.61 165.81 615.38 168.3C611.6 164.1 607.15 160.44 602.12 157.53L342.03 7.32C325.13 -2.44 304.31 -2.44 287.4 7.32L27.3199 157.52C10.4199 167.28 0.0100098 185.32 0.0100098 204.84V505.25C0.0100098 520.96 6.75995 535.7 18.2 545.94C9.28995 536.06 4.14001 523.1 4.14001 509.4Z" fill="white"/>
<path opacity="0.5" d="M616.546 190.78C617.734 195.31 618.353 200.03 618.353 204.84V505.25C618.353 524.77 608.13 542.81 591.534 552.57L336.119 702.78C319.522 712.54 299.077 712.54 282.47 702.78L27.0552 552.57C21.7031 549.42 17.0288 545.41 13.1301 540.77C16.7538 554.62 25.6313 566.67 38.1423 574.03L293.557 724.24C310.154 734 330.609 734 347.206 724.24L602.621 574.03C619.217 564.27 629.44 546.23 629.44 526.71V226.3C629.44 213.07 624.736 200.53 616.546 190.78Z" fill="#42244C"/>
<path d="M293.58 139.45H312.33L326.28 185.21H313.16L310.6 176.19H295.37L292.75 185.21H279.63L293.58 139.45ZM307.46 165.31L302.98 149.63L298.44 165.31H307.46Z" fill="#434B5A"/>
<path d="M333.64 139.45H346.44V185.21H333.64V139.45Z" fill="#434B5A"/>
<path d="M32.24 251.39V226.88C32.24 219.52 36.21 215.62 43.7 215.62H58.87C66.36 215.62 70.33 219.52 70.33 226.88C70.33 227.46 70.33 227.65 70.27 227.9L57.53 229.44V228.99C57.53 227.13 56.89 226.49 54.97 226.49H47.61C45.69 226.49 45.05 227.13 45.05 228.99V249.28C45.05 251.14 45.69 251.78 47.61 251.78H54.97C56.89 251.78 57.53 251.14 57.53 249.28V248.83L70.27 250.37C70.33 250.63 70.33 250.82 70.33 251.39C70.33 258.75 66.36 262.65 58.87 262.65H43.7C36.21 262.65 32.24 258.75 32.24 251.39Z" fill="#434B5A"/>
<path d="M116.39 226.88V251.39C116.39 258.75 112.42 262.65 104.93 262.65H89.76C82.27 262.65 78.3 258.75 78.3 251.39V226.88C78.3 219.52 82.27 215.62 89.76 215.62H104.93C112.43 215.62 116.39 219.52 116.39 226.88ZM101.04 226.49H93.6799C91.7599 226.49 91.12 227.13 91.12 228.99V249.28C91.12 251.14 91.7599 251.78 93.6799 251.78H101.04C102.96 251.78 103.6 251.14 103.6 249.28V228.99C103.59 227.13 102.96 226.49 101.04 226.49Z" fill="#434B5A"/>
<path d="M126 216.25H138.8V251.13H158V262.01H126V216.25Z" fill="#434B5A"/>
<path d="M165.36 216.25H178.16V251.13H197.36V262.01H165.36V216.25Z" fill="#434B5A"/>
<path d="M215.79 216.25H234.54L248.49 262.01H235.37L232.81 252.99H217.58L214.96 262.01H201.84L215.79 216.25ZM229.67 242.11L225.19 226.43L220.65 242.11H229.67Z" fill="#434B5A"/>
<path d="M255.85 216.25H280.62C288.11 216.25 292.08 220.15 292.08 227.51V230.45C292.08 233.71 290.93 235.95 287.79 238C291.57 239.66 292.97 242.35 292.97 246.77V250.74C292.97 258.1 289 262 281.51 262H255.85V216.25ZM276.71 233.66C278.63 233.66 279.27 233.02 279.27 231.16V229.24C279.27 227.38 278.63 226.74 276.71 226.74H268.65V233.65H276.71V233.66ZM277.61 244.16H268.65V251.52H277.61C279.53 251.52 280.17 250.88 280.17 249.02V246.65C280.17 244.8 279.53 244.16 277.61 244.16Z" fill="#434B5A"/>
<path d="M338.73 226.88V251.39C338.73 258.75 334.76 262.65 327.27 262.65H312.1C304.61 262.65 300.64 258.75 300.64 251.39V226.88C300.64 219.52 304.61 215.62 312.1 215.62H327.27C334.76 215.62 338.73 219.52 338.73 226.88ZM323.37 226.49H316.01C314.09 226.49 313.45 227.13 313.45 228.99V249.28C313.45 251.14 314.09 251.78 316.01 251.78H323.37C325.29 251.78 325.93 251.14 325.93 249.28V228.99C325.93 227.13 325.29 226.49 323.37 226.49Z" fill="#434B5A"/>
<path d="M348.33 216.25H373.86C381.35 216.25 385.32 220.15 385.32 227.51V235.06C385.32 240.18 383.4 243.64 379.69 245.24L390.63 262.01H375.72L365.54 246.33H361.12V262.01H348.32V216.25H348.33ZM369.96 235.45C371.88 235.45 372.52 234.81 372.52 232.95V229.62C372.52 227.76 371.88 227.12 369.96 227.12H361.13V235.44H369.96V235.45Z" fill="#434B5A"/>
<path d="M409.06 216.25H427.81L441.76 262.01H428.64L426.08 252.99H410.85L408.23 262.01H395.11L409.06 216.25ZM422.95 242.11L418.47 226.43L413.93 242.11H422.95Z" fill="#434B5A"/>
<path d="M453.61 227.13H441.13V216.25H478.89V227.13H466.41V262.01H453.61V227.13Z" fill="#434B5A"/>
<path d="M486.25 216.25H499.05V262.01H486.25V216.25Z" fill="#434B5A"/>
<path d="M546.72 226.88V251.39C546.72 258.75 542.75 262.65 535.26 262.65H520.09C512.6 262.65 508.63 258.75 508.63 251.39V226.88C508.63 219.52 512.6 215.62 520.09 215.62H535.26C542.76 215.62 546.72 219.52 546.72 226.88ZM531.37 226.49H524.01C522.09 226.49 521.45 227.13 521.45 228.99V249.28C521.45 251.14 522.09 251.78 524.01 251.78H531.37C533.29 251.78 533.93 251.14 533.93 249.28V228.99C533.93 227.13 533.29 226.49 531.37 226.49Z" fill="#434B5A"/>
<path d="M556.2 216.25H568.55L583.4 240.7V216.25H596.2V262.01H583.85L569 237.56V262.01H556.2V216.25Z" fill="#434B5A"/>
<path d="M309.744 635.552C304.616 635.552 300.723 634.128 298.064 631.279C295.469 628.431 294.171 624.347 294.171 619.03V613.618H304.047V619.505C304.047 623.873 305.851 626.057 309.459 626.057C311.231 626.057 312.561 625.519 313.447 624.442C314.397 623.303 314.871 621.341 314.871 618.555V613.143C314.871 610.104 314.333 607.952 313.257 606.686C312.181 605.357 310.44 604.692 308.035 604.692H304.521V595.196H308.32C310.409 595.196 311.959 594.658 312.972 593.582C314.048 592.506 314.587 590.702 314.587 588.17V583.327C314.587 581.048 314.112 579.371 313.162 578.295C312.213 577.218 310.947 576.68 309.364 576.68C306.009 576.68 304.331 578.738 304.331 582.852V587.22H294.456V583.707C294.456 578.39 295.754 574.306 298.349 571.458C301.008 568.609 304.806 567.185 309.744 567.185C314.745 567.185 318.543 568.609 321.138 571.458C323.734 574.243 325.032 578.295 325.032 583.612V585.986C325.032 589.594 324.43 592.506 323.227 594.722C322.025 596.874 320.157 598.425 317.625 599.374V599.564C320.347 600.577 322.309 602.223 323.512 604.502C324.715 606.781 325.316 609.693 325.316 613.238V619.125C325.316 624.442 323.987 628.525 321.328 631.374C318.733 634.159 314.871 635.552 309.744 635.552Z" fill="#434B5A"/>
<path d="M238.05 465.44L233.14 476.13C224.1 468.69 222.55 459.34 224.93 454.18L226.69 450.36L253.5 391.47C253.55 391.42 253.55 391.32 253.6 391.26C259.18 379.38 278.65 369 296.73 372.2L275.86 399.94C270.13 407.59 271.21 418.18 278.34 423.55C281.08 425.62 284.33 426.6 287.64 426.6C292.91 426.6 298.23 424.12 301.74 419.42L317.55 402.68L352.52 419.93C352.52 419.93 364.5 425.61 361.66 435.84L361.61 435.94L327.83 499.22C327.62 498.86 327.47 498.5 327.26 498.14C327.21 497.88 327.05 497.62 326.9 497.42C325.82 495.72 324.21 494.32 322.25 493.44C320.75 492.77 319.15 492.41 317.6 492.41C314.04 492.41 310.63 494.17 308.61 497.16C309.07 495.87 309.28 494.58 309.28 493.23C309.28 488.53 306.54 483.93 301.94 481.81C296.26 479.23 289.59 481.19 286.29 486.2L285.93 485.99C286.76 484.23 287.12 482.37 287.12 480.57C287.12 475.51 284.18 470.6 279.22 468.33C272.45 465.18 264.45 468.07 261.4 474.68L260.83 475.92L260.78 475.87C261.5 474.27 261.86 472.56 261.86 470.86C261.86 466.16 259.12 461.61 254.52 459.5C248.28 456.6 240.9 459.29 238.05 465.44Z" fill="white"/>
<path d="M365.03 462.85L353.92 483.62L343.38 503.35L332.84 523.08L322.51 519.05L327.68 507.74C328.97 504.95 328.92 501.85 327.84 499.22L361.62 435.94L375.62 441.16L376.45 441.47L365.03 462.85Z" fill="#9F88A7"/>
<path d="M529.14 306.85L528.73 416.98L441.59 444.51L436.16 431.81L409.82 369.71L404.6 357.42L529.14 306.85Z" fill="#60386D"/>
<path d="M301.75 419.41C298.24 424.11 292.92 426.59 287.65 426.59C284.34 426.59 281.09 425.61 278.35 423.54C271.22 418.17 270.14 407.58 275.87 399.93L296.74 372.19L303.04 363.82C309.7 357.98 315.59 355.3 324.48 355.55C353.51 356.32 389.26 377.25 389.26 377.25L409.1 370.02L409.82 369.71L436.17 431.8L413.6 440.79L404.77 451.95L376.46 441.46L375.63 441.15L361.63 435.93L361.68 435.83C364.52 425.6 352.54 419.92 352.54 419.92L317.57 402.67L301.75 419.41Z" fill="white"/>
<path d="M311.2 528.46C309.65 528.46 308.05 528.1 306.55 527.43C301.75 525.21 299.21 519.89 300.51 514.93C300.46 514.88 300.56 514.83 300.56 514.83C300.66 514.26 300.87 513.69 301.13 513.13L307.79 498.61C308 498.15 308.25 497.68 308.56 497.22C308.56 497.22 308.56 497.22 308.61 497.17C310.62 494.17 314.03 492.42 317.6 492.42C319.15 492.42 320.75 492.78 322.25 493.45C324.21 494.33 325.81 495.72 326.9 497.43L326.64 497.89L327.26 498.15C327.47 498.51 327.62 498.87 327.83 499.23C328.91 501.86 328.97 504.96 327.67 507.75L322.5 519.06L322.09 519.94L321.01 522.26C319.21 526.13 315.28 528.46 311.2 528.46Z" fill="white"/>
<path d="M300.51 514.92C297.62 520.96 290.28 523.6 284.08 520.71C279.48 518.59 276.74 514.05 276.74 509.35C276.74 507.65 277.1 505.94 277.82 504.34L277.92 504.08H277.97L285.46 487.76C285.72 487.19 285.98 486.68 286.29 486.21C289.6 481.2 296.26 479.24 301.94 481.82C306.54 483.94 309.28 488.54 309.28 493.24C309.28 494.58 309.07 495.87 308.61 497.17C308.56 497.22 308.56 497.22 308.56 497.22C308.25 497.68 307.99 498.15 307.79 498.61L301.13 513.13C300.87 513.7 300.67 514.27 300.56 514.83C300.56 514.82 300.46 514.87 300.51 514.92Z" fill="white"/>
<path d="M259.85 510.33C254.89 508.06 251.95 503.15 251.95 498.04C251.95 496.23 252.31 494.37 253.14 492.62L253.19 492.52L260.84 475.94L261.41 474.7C264.46 468.09 272.46 465.2 279.23 468.35C284.19 470.62 287.13 475.53 287.13 480.59C287.13 482.4 286.77 484.26 285.94 486.01L286.3 486.22C285.99 486.68 285.73 487.2 285.47 487.77L277.98 504.09H277.93L277.67 503.94C274.63 510.58 266.62 513.43 259.85 510.33Z" fill="white"/>
<path d="M253.6 391.26C253.55 391.31 253.55 391.41 253.5 391.47L226.69 450.36L207.99 441.89L234.75 382.74L253.6 391.26Z" fill="#9F88A7"/>
<path d="M236.66 498.39C232.06 496.27 229.32 491.73 229.32 487.03C229.32 485.33 229.63 483.62 230.4 482.02L233.14 476.13L238.05 465.44C240.89 459.29 248.28 456.61 254.53 459.5C259.13 461.62 261.87 466.16 261.87 470.86C261.87 472.56 261.51 474.27 260.79 475.87L260.84 475.92L253.19 492.5L253.14 492.45C250.3 498.6 242.91 501.29 236.66 498.39Z" fill="white"/>
<path d="M230.15 366.77C235.57 369.25 238 375.6 235.52 381.03L234.75 382.73L207.99 441.88L207.11 443.84C204.63 449.26 198.28 451.69 192.8 449.21L108.03 410.73L108.7 309.12L230.15 366.77Z" fill="white"/>
<path d="M234.75 382.73L235.52 381.03C238 375.61 235.57 369.25 230.15 366.77L108.7 309.12L108.03 410.73L192.8 449.21C198.28 451.69 204.63 449.26 207.11 443.84L207.99 441.88L234.75 382.73Z" stroke="#231F20" stroke-width="7.7487" stroke-miterlimit="10" stroke-linecap="round" stroke-linejoin="round"/>
<path d="M296.74 372.19C278.66 368.99 259.18 379.37 253.61 391.25C253.56 391.3 253.56 391.4 253.51 391.46L226.7 450.35L224.94 454.17C222.56 459.34 224.11 468.69 233.15 476.12" stroke="#231F20" stroke-width="7.7487" stroke-miterlimit="10" stroke-linecap="round" stroke-linejoin="round"/>
<path d="M317.56 402.67L352.53 419.92C352.53 419.92 364.51 425.6 361.67 435.83L361.62 435.93L327.84 499.21L327.79 499.26" stroke="#231F20" stroke-width="7.7487" stroke-miterlimit="10" stroke-linecap="round" stroke-linejoin="round"/>
<path d="M234.75 382.73L253.6 391.26" stroke="#231F20" stroke-width="7.7487" stroke-miterlimit="10" stroke-linecap="round" stroke-linejoin="round"/>
<path d="M207.99 441.88L226.69 450.35" stroke="#231F20" stroke-width="7.7487" stroke-miterlimit="10" stroke-linecap="round" stroke-linejoin="round"/>
<path d="M361.62 435.94L375.62 441.16L376.45 441.47L404.76 451.96L405.38 452.17C411.73 454.55 415.09 461.52 412.77 467.77C411.01 472.57 406.36 475.52 401.41 475.52C400.64 475.52 399.91 475.47 399.19 475.31C398.83 475.26 398.47 475.16 398.11 475.1C397.75 475 397.39 474.84 397.03 474.74L365.05 462.86" stroke="#231F20" stroke-width="7.7487" stroke-miterlimit="10" stroke-linecap="round" stroke-linejoin="round"/>
<path d="M397 474.58C397.36 474.73 397.72 474.89 398.08 475.1C403.87 477.89 407.43 485.28 405.31 490.8C403.61 495.29 399.01 498.08 394.1 498.08C392.6 498.08 391.05 497.82 389.55 497.25L382.32 494.67L378.24 493.22L353.91 483.61" stroke="#231F20" stroke-width="7.7487" stroke-miterlimit="10" stroke-linecap="round" stroke-linejoin="round"/>
<path d="M382.28 494.78C389.46 497.21 393.39 503.51 390.08 510.43C388.43 514.56 384.81 516.11 379.54 516.11C377.73 516.11 375.1 515.54 373.24 514.92L369.06 513.32L343.39 503.35" stroke="#231F20" stroke-width="7.7487" stroke-miterlimit="10" stroke-linecap="round" stroke-linejoin="round"/>
<path d="M369.01 513.43C375.98 516.53 377.12 522.99 374.33 528.26C372.21 532.24 367.25 534.25 361.88 533.79C360.02 533.63 358.16 533.12 356.3 532.34L332.85 523.09L322.52 519.06" stroke="#231F20" stroke-width="7.7487" stroke-miterlimit="10" stroke-linecap="round" stroke-linejoin="round"/>
<path d="M253.14 492.45C250.3 498.6 242.91 501.28 236.66 498.39C232.06 496.27 229.32 491.73 229.32 487.03C229.32 485.33 229.63 483.62 230.4 482.02L233.14 476.13L238.05 465.44C240.89 459.29 248.28 456.61 254.53 459.5C259.13 461.62 261.87 466.16 261.87 470.86C261.87 472.56 261.51 474.27 260.79 475.87" stroke="#231F20" stroke-width="7.7487" stroke-miterlimit="10" stroke-linecap="round" stroke-linejoin="round"/>
<path d="M308.57 497.21C308.52 497.57 308.36 497.93 308.21 498.24" stroke="#231F20" stroke-width="7.7487" stroke-miterlimit="10" stroke-linecap="round" stroke-linejoin="round"/>
<path d="M300.51 514.92C297.62 520.96 290.28 523.6 284.08 520.71C279.48 518.59 276.74 514.05 276.74 509.35C276.74 507.65 277.1 505.94 277.82 504.34L277.92 504.08H277.97L285.46 487.76C285.72 487.19 285.98 486.68 286.29 486.21C289.6 481.2 296.26 479.24 301.94 481.82C306.54 483.94 309.28 488.54 309.28 493.24C309.28 494.58 309.07 495.87 308.61 497.17" stroke="#231F20" stroke-width="7.7487" stroke-miterlimit="10" stroke-linecap="round" stroke-linejoin="round"/>
<path d="M300.51 514.92C299.22 519.88 301.75 525.2 306.55 527.42C308.05 528.09 309.65 528.45 311.2 528.45C315.28 528.45 319.21 526.13 321.01 522.25L322.09 519.93L322.5 519.05L327.67 507.74C328.96 504.95 328.91 501.85 327.83 499.22C327.62 498.86 327.47 498.5 327.26 498.14C327.21 497.88 327.05 497.62 326.9 497.42C325.82 495.72 324.21 494.32 322.25 493.44C320.75 492.77 319.15 492.41 317.6 492.41C314.04 492.41 310.63 494.17 308.61 497.16C308.56 497.21 308.56 497.21 308.56 497.21C308.25 497.67 307.99 498.14 307.79 498.6L301.13 513.12C300.87 513.69 300.67 514.26 300.56 514.82C300.56 514.82 300.46 514.87 300.51 514.92Z" stroke="#231F20" stroke-width="7.7487" stroke-miterlimit="10" stroke-linecap="round" stroke-linejoin="round"/>
<path d="M277.68 503.92C274.63 510.58 266.63 513.43 259.86 510.33C254.9 508.06 251.96 503.15 251.96 498.04C251.96 496.23 252.32 494.37 253.15 492.62L253.2 492.52L260.85 475.94L261.42 474.7C264.47 468.09 272.47 465.2 279.24 468.35C284.2 470.62 287.14 475.53 287.14 480.59C287.14 482.4 286.78 484.26 285.95 486.01" stroke="#231F20" stroke-width="7.7487" stroke-miterlimit="10" stroke-linecap="round" stroke-linejoin="round"/>
<path d="M409.09 370.02L389.25 377.25C389.25 377.25 353.5 356.33 324.47 355.55C315.58 355.29 309.7 357.98 303.03 363.82L296.73 372.19L275.86 399.93C270.13 407.58 271.21 418.17 278.34 423.54C281.08 425.61 284.33 426.59 287.64 426.59C292.91 426.59 298.23 424.11 301.74 419.41L317.55 402.67L326.38 393.37" stroke="#231F20" stroke-width="7.7487" stroke-miterlimit="10" stroke-linecap="round" stroke-linejoin="round"/>
<path d="M436.16 431.81L413.59 440.8L404.75 451.95" stroke="#231F20" stroke-width="7.7487" stroke-miterlimit="10" stroke-linecap="round" stroke-linejoin="round"/>
<path d="M436.16 431.81L441.59 444.51L528.73 416.98L529.14 306.85L404.6 357.42L409.82 369.71L436.16 431.81Z" stroke="#231F20" stroke-width="7.7487" stroke-miterlimit="10" stroke-linecap="round" stroke-linejoin="round"/>
<path d="M376.44 441.47L365.03 462.85L353.92 483.62L343.38 503.35L332.85 523.09" stroke="#231F20" stroke-width="7.7487" stroke-miterlimit="10" stroke-linecap="round" stroke-linejoin="round"/>
<defs>
<linearGradient id="paint0_linear_552_1700" x1="70.9357" y1="111.27" x2="558.502" y2="598.836" gradientUnits="userSpaceOnUse">
<stop stop-color="#EEF1F7"/>
<stop offset="1" stop-color="white"/>
</linearGradient>
</defs>
</svg>
