<svg width="630" height="830" viewBox="0 0 630 830" fill="none" xmlns="http://www.w3.org/2000/svg">
<path d="M629.44 324.56V624.96C629.44 644.48 619.01 662.54 602.12 672.28L342.03 822.48C325.14 832.25 304.31 832.25 287.42 822.48L29.1799 673.35L27.2998 672.28C21.3998 668.88 16.3099 664.47 12.1899 659.35C4.40994 649.78 0.0100098 637.68 0.0100098 624.96V324.56C0.0100098 305.04 10.4098 286.98 27.2998 277.24L287.42 127.01C304.31 117.26 325.14 117.26 342.03 127.01L602.12 277.24C619.01 286.98 629.44 305.04 629.44 324.56Z" fill="#8684CF"/>
<path d="M12.22 646.42V346C12.22 326.48 22.63 308.44 39.53 298.68L299.62 148.47C316.52 138.71 337.35 138.71 354.25 148.47L614.34 298.68C619.18 301.47 623.46 304.96 627.14 308.95C623.21 295.75 614.39 284.3 602.13 277.22L342.03 127.02C325.13 117.26 304.3 117.26 287.4 127.02L27.3198 277.22C10.4198 286.98 0.0100098 305.02 0.0100098 324.54V624.95C0.0100098 638.89 5.34002 652.05 14.52 662C13.03 657.01 12.22 651.78 12.22 646.42Z" fill="#575596"/>
<path d="M629.44 505.27V204.84C629.44 185.32 619.03 167.29 602.13 157.53L342.04 7.32C325.13 -2.44 304.3 -2.44 287.39 7.32L27.3098 157.52C10.4098 167.28 0 185.32 0 204.83V505.26C0 524.78 10.4098 542.81 27.3098 552.57L287.39 702.77C304.3 712.53 325.13 712.53 342.04 702.77L602.12 552.57C619.03 542.82 629.44 524.79 629.44 505.27Z" fill="url(#paint0_linear_552_1884)"/>
<path d="M4.13989 509.4V208.99C4.13989 189.47 14.55 171.43 31.45 161.67L291.54 11.46C308.44 1.7 329.27 1.7 346.17 11.46L606.26 161.67C609.56 163.58 612.61 165.81 615.38 168.3C611.6 164.1 607.15 160.44 602.12 157.53L342.03 7.32C325.13 -2.44 304.31 -2.44 287.4 7.32L27.3198 157.52C10.4198 167.28 0.0100098 185.32 0.0100098 204.84V505.25C0.0100098 520.96 6.75995 535.7 18.2 545.94C9.28995 536.06 4.13989 523.1 4.13989 509.4Z" fill="white"/>
<path opacity="0.5" d="M616.546 190.78C617.734 195.31 618.353 200.03 618.353 204.84V505.25C618.353 524.77 608.13 542.81 591.534 552.57L336.119 702.78C319.522 712.54 299.076 712.54 282.47 702.78L27.055 552.57C21.7029 549.42 17.0285 545.41 13.1299 540.77C16.7536 554.62 25.6311 566.67 38.1421 574.03L293.557 724.24C310.154 734 330.609 734 347.205 724.24L602.621 574.03C619.217 564.27 629.44 546.23 629.44 526.71V226.3C629.45 213.07 624.736 200.53 616.546 190.78Z" fill="#4C4B7C"/>
<path d="M203.81 226.91V234.53H220.96V245.41H203.81V261.79H191.01V216.03H223.65V226.91H203.81Z" fill="#434B5A"/>
<path d="M257.63 262.42H243.1C235.61 262.42 231.64 258.52 231.64 251.16V216.03H244.44V249.05C244.44 250.91 245.08 251.55 247 251.55H253.72C255.64 251.55 256.28 250.91 256.28 249.05V216.03H269.08V251.16C269.08 258.52 265.12 262.42 257.63 262.42Z" fill="#434B5A"/>
<path d="M279.2 216.03H292V250.91H311.2V261.79H279.2V216.03Z" fill="#434B5A"/>
<path d="M318.56 216.03H331.36V250.91H350.56V261.79H318.56V216.03Z" fill="#434B5A"/>
<path d="M384.99 216.03H403.74L417.69 261.79H404.57L402.01 252.77H386.78L384.16 261.79H371.04L384.99 216.03ZM398.87 241.88L394.39 226.2L389.85 241.88H398.87Z" fill="#434B5A"/>
<path d="M425.05 216.03H437.85V261.79H425.05V216.03Z" fill="#434B5A"/>
<path d="M318.333 622.543H298.392V613.048L317.383 568.134H328.777V613.048H333.715V622.543H328.777V634.603H318.333V622.543ZM318.333 613.048V587.125H318.143L307.888 613.048H318.333Z" fill="#434B5A"/>
<path d="M466.54 433.19C458.51 433.19 451.67 437.95 448.99 445.09H408.83L393.26 419.41L408.43 394.72H448.99C451.67 401.46 458.51 406.52 466.54 406.52C478.04 406.52 487.56 395.71 485.18 383.52C483.49 376.08 477.74 370.03 470.31 368.65C460.89 366.67 452.06 372.02 448.99 380.55H404.37C402.09 380.55 399.71 381.84 398.32 383.92L381.27 411.39C381.66 414.07 381.86 416.84 381.86 419.62C381.86 422.5 381.66 425.27 381.27 427.95L398.32 455.91C399.71 457.89 402.09 459.28 404.37 459.28H448.99C451.67 466.32 458.51 471.08 466.54 471.08C477.05 471.08 485.48 462.65 485.48 452.14C485.48 441.62 477.05 433.19 466.54 433.19Z" fill="#494781"/>
<path d="M415.58 478.51C406.06 476.43 397.33 481.88 393.96 490.01H375.72L362.43 468.39C359.06 472.06 355.29 475.23 351.22 478.11L365.5 501.11C366.89 503.19 369.27 504.48 371.65 504.48H393.96C396.94 511.22 403.78 516.38 411.51 516.38C423.31 516.38 432.83 505.57 430.05 492.98C428.37 485.94 422.62 479.9 415.58 478.51Z" fill="#494781"/>
<path d="M376.01 349.11H394.26C397.33 357.14 406.46 362.6 415.88 360.61C423.02 358.92 429.07 353.17 430.46 346.03C433.14 333.54 423.72 322.73 411.82 322.73C404.09 322.73 396.95 327.79 394.27 334.53H371.96C369.58 334.53 367.3 335.92 365.91 337.9L351.43 361.4C355.5 364.18 359.16 367.45 362.44 371.02L376.01 349.11Z" fill="#494781"/>
<path d="M301.82 413.26C301.15 411.64 300.59 410.19 300.13 408.96C299.64 407.73 299.25 406.74 298.93 406.03C298.68 406.74 298.33 407.72 297.84 408.99C297.35 410.22 296.82 411.67 296.18 413.29C295.58 414.95 294.87 416.75 294.13 418.68C293.36 420.65 292.58 422.74 291.8 424.89H306.05C305.31 422.7 304.57 420.66 303.83 418.68C303.12 416.71 302.45 414.91 301.82 413.26Z" fill="#6F6E9C"/>
<path d="M310.81 363.49C279.79 363.49 254.64 388.64 254.64 419.66C254.64 450.68 279.79 475.83 310.81 475.83C341.83 475.83 366.98 450.68 366.98 419.66C366.98 388.64 341.83 363.49 310.81 363.49ZM312.43 444.6C311.87 442.87 311.27 441.07 310.63 439.28C309.99 437.45 309.36 435.61 308.72 433.81H289.22C288.59 435.61 287.99 437.44 287.35 439.28C286.72 441.11 286.12 442.88 285.55 444.6H273.91C275.78 439.24 277.58 434.27 279.24 429.68C280.93 425.13 282.59 420.83 284.21 416.81C285.8 412.79 287.38 408.95 288.97 405.31C290.52 401.71 292.14 398.15 293.84 394.7H304.49C306.11 398.16 307.73 401.72 309.32 405.31C310.91 408.94 312.53 412.79 314.15 416.81C315.74 420.83 317.39 425.13 319.09 429.68C320.78 434.26 322.55 439.24 324.45 444.6H312.43ZM342.08 444.6H330.83V394.71H342.08V444.6Z" fill="#6F6E9C"/>
<path d="M466.54 433.19C458.51 433.19 451.67 437.95 448.99 445.09H408.83L393.26 419.41L408.43 394.72H448.99C451.67 401.46 458.51 406.52 466.54 406.52C478.04 406.52 487.56 395.71 485.18 383.52C483.49 376.08 477.74 370.03 470.31 368.65C460.89 366.67 452.06 372.02 448.99 380.55H404.37C402.09 380.55 399.71 381.84 398.32 383.92L381.27 411.39C381.66 414.07 381.86 416.84 381.86 419.62C381.86 422.5 381.66 425.27 381.27 427.95L398.32 455.91C399.71 457.89 402.09 459.28 404.37 459.28H448.99C451.67 466.32 458.51 471.08 466.54 471.08C477.05 471.08 485.48 462.65 485.48 452.14C485.48 441.62 477.05 433.19 466.54 433.19Z" fill="#494781" stroke="#231F20" stroke-width="1.8529" stroke-miterlimit="10"/>
<path d="M239.77 419.61C239.77 380.44 271.6 348.61 310.76 348.61C319.58 348.61 328.11 350.2 335.95 353.27V314.3C335.95 312.22 335.95 310.53 335.65 308.85C334.66 302.8 329.6 298.74 323.85 298.74H298.17C292.02 298.74 286.96 303.1 286.27 308.85L283.29 330.86C276.45 333.54 274.76 334.23 268.02 337.21L250.17 323.72C245.41 320.35 238.67 320.65 234.6 324.71L216.35 342.95C211.99 347.41 211.59 353.76 215.36 358.52L228.85 376.47C226.17 383.21 225.48 384.9 222.41 391.64L200.1 394.71C194.35 395.7 189.99 400.76 189.99 406.51V432.19C189.99 438.24 194.35 443.3 200.1 443.99L222.11 447.06C224.79 453.8 225.48 455.49 228.56 462.23L214.98 480.87C211.31 485.53 212 492.37 215.97 496.34L234.22 514.68C238.28 518.65 245.13 519.34 249.79 515.67L267.74 502.09C274.48 504.87 276.17 505.56 282.91 508.54L285.98 530.55C286.97 536.3 292.03 540.66 297.78 540.66H323.46C329.61 540.66 334.66 536.3 335.26 530.55C335.66 528.86 335.66 526.78 335.66 525.1V486.13C327.93 489.1 319.5 490.69 310.77 490.69C271.6 490.7 239.77 458.88 239.77 419.61Z" stroke="#231F20" stroke-width="1.8529" stroke-miterlimit="10"/>
<path d="M415.58 478.51C406.06 476.43 397.33 481.88 393.96 490.01H375.72L362.43 468.39C359.06 472.06 355.29 475.23 351.22 478.11L365.5 501.11C366.89 503.19 369.27 504.48 371.65 504.48H393.96C396.94 511.22 403.78 516.38 411.51 516.38C423.31 516.38 432.83 505.57 430.05 492.98C428.37 485.94 422.62 479.9 415.58 478.51Z" fill="#494781" stroke="#231F20" stroke-width="1.8529" stroke-miterlimit="10"/>
<path d="M376.01 349.11H394.26C397.33 357.14 406.46 362.6 415.88 360.61C423.02 358.92 429.07 353.17 430.46 346.03C433.14 333.54 423.72 322.73 411.82 322.73C404.09 322.73 396.95 327.79 394.27 334.53H371.96C369.58 334.53 367.3 335.92 365.91 337.9L351.43 361.4C355.5 364.18 359.16 367.45 362.44 371.02L376.01 349.11Z" fill="#494781" stroke="#231F20" stroke-width="1.8529" stroke-miterlimit="10"/>
<path d="M301.82 413.26C301.15 411.64 300.59 410.19 300.13 408.96C299.64 407.73 299.25 406.74 298.93 406.03C298.68 406.74 298.33 407.72 297.84 408.99C297.35 410.22 296.82 411.67 296.18 413.29C295.58 414.95 294.87 416.75 294.13 418.68C293.36 420.65 292.58 422.74 291.8 424.89H306.05C305.31 422.7 304.57 420.66 303.83 418.68C303.12 416.71 302.45 414.91 301.82 413.26Z" fill="#6F6E9C" stroke="#231F20" stroke-width="3.7059" stroke-miterlimit="10"/>
<path d="M310.81 363.49C279.79 363.49 254.64 388.64 254.64 419.66C254.64 450.68 279.79 475.83 310.81 475.83C341.83 475.83 366.98 450.68 366.98 419.66C366.98 388.64 341.83 363.49 310.81 363.49ZM312.43 444.6C311.87 442.87 311.27 441.07 310.63 439.28C309.99 437.45 309.36 435.61 308.72 433.81H289.22C288.59 435.61 287.99 437.44 287.35 439.28C286.72 441.11 286.12 442.88 285.55 444.6H273.91C275.78 439.24 277.58 434.27 279.24 429.68C280.93 425.13 282.59 420.83 284.21 416.81C285.8 412.79 287.38 408.95 288.97 405.31C290.52 401.71 292.14 398.15 293.84 394.7H304.49C306.11 398.16 307.61 401.58 309.2 405.18C310.79 408.81 312.21 413.2 313.83 417.22C315.42 421.24 317.39 425.13 319.09 429.68C320.78 434.26 322.55 439.24 324.45 444.6H312.43ZM342.08 444.6H330.83V394.71H342.08V444.6Z" fill="#6F6E9C" stroke="#231F20" stroke-width="3.7059" stroke-miterlimit="10"/>
<path d="M466.54 433.83C458.51 433.83 451.67 438.59 448.99 445.73H408.83L393.26 420.05L408.43 395.36H448.99C451.67 402.1 458.51 407.16 466.54 407.16C478.04 407.16 487.56 396.35 485.18 384.16C483.49 376.72 477.74 370.67 470.31 369.29C460.89 367.31 452.06 372.66 448.99 381.19H404.37C402.09 381.19 399.71 382.48 398.32 384.56L381.27 412.03C381.66 414.71 381.86 417.48 381.86 420.26C381.86 423.14 381.66 425.91 381.27 428.59L398.32 456.55C399.71 458.53 402.09 459.92 404.37 459.92H448.99C451.67 466.96 458.51 471.72 466.54 471.72C477.05 471.72 485.48 463.29 485.48 452.78C485.48 442.26 477.05 433.83 466.54 433.83Z" fill="#8684CF"/>
<path d="M415.58 479.15C406.06 477.07 397.33 482.52 393.96 490.65H375.72L362.43 469.03C359.06 472.7 355.29 475.87 351.22 478.75L365.5 501.75C366.89 503.83 369.27 505.12 371.65 505.12H393.96C396.94 511.86 403.78 517.02 411.51 517.02C423.31 517.02 432.83 506.21 430.05 493.62C428.37 486.58 422.62 480.53 415.58 479.15Z" fill="#8684CF"/>
<path d="M376.01 349.75H394.26C397.33 357.78 406.46 363.24 415.88 361.25C423.02 359.56 429.07 353.81 430.46 346.67C433.14 334.18 423.72 323.37 411.82 323.37C404.09 323.37 396.95 328.43 394.27 335.17H371.96C369.58 335.17 367.3 336.56 365.91 338.54L351.43 362.04C355.5 364.82 359.16 368.09 362.44 371.66L376.01 349.75Z" fill="#8684CF"/>
<path d="M310.81 364.13C279.79 364.13 254.64 389.28 254.64 420.3C254.64 451.32 279.79 476.47 310.81 476.47C341.83 476.47 366.98 451.32 366.98 420.3C366.98 389.27 341.83 364.13 310.81 364.13Z" stroke="#231F20" stroke-width="0.2316" stroke-miterlimit="10"/>
<path d="M466.54 433.83C458.51 433.83 451.67 438.59 448.99 445.73H408.83L393.26 420.05L408.43 395.36H448.99C451.67 402.1 458.51 407.16 466.54 407.16C478.04 407.16 487.56 396.35 485.18 384.16C483.49 376.72 477.74 370.67 470.31 369.29C460.89 367.31 452.06 372.66 448.99 381.19H404.37C402.09 381.19 399.71 382.48 398.32 384.56L381.27 412.03C381.66 414.71 381.86 417.48 381.86 420.26C381.86 423.14 381.66 425.91 381.27 428.59L398.32 456.55C399.71 458.53 402.09 459.92 404.37 459.92H448.99C451.67 466.96 458.51 471.72 466.54 471.72C477.05 471.72 485.48 463.29 485.48 452.78C485.48 442.26 477.05 433.83 466.54 433.83Z" stroke="#231F20" stroke-width="7.1789" stroke-miterlimit="10" stroke-linecap="round" stroke-linejoin="round"/>
<path d="M239.77 420.25C239.77 381.08 271.6 349.25 310.76 349.25C319.58 349.25 328.11 350.84 335.95 353.91V314.94C335.95 312.86 335.95 311.17 335.65 309.49C334.66 303.44 329.6 299.38 323.85 299.38H298.17C292.02 299.38 286.96 303.74 286.27 309.49L283.29 331.5C276.45 334.18 274.76 334.87 268.02 337.85L250.17 324.36C245.41 320.99 238.67 321.29 234.6 325.35L216.35 343.59C211.99 348.05 211.59 354.4 215.36 359.16L228.85 377.11C226.17 383.85 225.48 385.54 222.41 392.28L200.1 395.35C194.35 396.34 189.99 401.4 189.99 407.15V432.83C189.99 438.88 194.35 443.94 200.1 444.63L222.11 447.7C224.79 454.44 225.48 456.13 228.56 462.87L214.98 481.51C211.31 486.17 212 493.01 215.97 496.98L234.22 515.32C238.28 519.29 245.13 519.98 249.79 516.31L267.74 502.73C274.48 505.51 276.17 506.2 282.91 509.18L285.98 531.19C286.97 536.94 292.03 541.3 297.78 541.3H323.46C329.61 541.3 334.66 536.94 335.26 531.19C335.66 529.5 335.66 527.42 335.66 525.74V486.77C327.93 489.74 319.5 491.33 310.77 491.33C271.6 491.34 239.77 459.51 239.77 420.25Z" stroke="#231F20" stroke-width="7.1789" stroke-miterlimit="10" stroke-linecap="round" stroke-linejoin="round"/>
<path d="M415.58 479.15C406.06 477.07 397.33 482.52 393.96 490.65H375.72L362.43 469.03C359.06 472.7 355.29 475.87 351.22 478.75L365.5 501.75C366.89 503.83 369.27 505.12 371.65 505.12H393.96C396.94 511.86 403.78 517.02 411.51 517.02C423.31 517.02 432.83 506.21 430.05 493.62C428.37 486.58 422.62 480.53 415.58 479.15Z" stroke="#231F20" stroke-width="7.1789" stroke-miterlimit="10" stroke-linecap="round" stroke-linejoin="round"/>
<path d="M376.01 349.75H394.26C397.33 357.78 406.46 363.24 415.88 361.25C423.02 359.56 429.07 353.81 430.46 346.67C433.14 334.18 423.72 323.37 411.82 323.37C404.09 323.37 396.95 328.43 394.27 335.17H371.96C369.58 335.17 367.3 336.56 365.91 338.54L351.43 362.04C355.5 364.82 359.16 368.09 362.44 371.66L376.01 349.75Z" stroke="#231F20" stroke-width="7.1789" stroke-miterlimit="10" stroke-linecap="round" stroke-linejoin="round"/>
<path d="M310.81 364.13C279.79 364.13 254.64 389.28 254.64 420.3C254.64 451.32 279.79 476.47 310.81 476.47C341.83 476.47 366.98 451.32 366.98 420.3C366.98 389.27 341.83 364.13 310.81 364.13Z" stroke="#231F20" stroke-width="7.1789" stroke-miterlimit="10" stroke-linecap="round" stroke-linejoin="round"/>
<path d="M293.85 394.71L273.92 444.6H285.56L289.23 433.81H308.73L312.43 444.6H324.45L304.49 394.71H293.85Z" stroke="#231F20" stroke-width="6" stroke-miterlimit="10"/>
<path d="M342.09 394.53H330.97V445.49H342.09V394.53Z" stroke="#231F20" stroke-width="6" stroke-miterlimit="10"/>
<defs>
<linearGradient id="paint0_linear_552_1884" x1="70.9359" y1="111.27" x2="558.502" y2="598.836" gradientUnits="userSpaceOnUse">
<stop stop-color="#EEF1F7"/>
<stop offset="1" stop-color="white"/>
</linearGradient>
</defs>
</svg>
