<svg width="630" height="830" viewBox="0 0 630 830" fill="none" xmlns="http://www.w3.org/2000/svg">
<path d="M629.44 324.56V624.96C629.44 644.48 619.01 662.54 602.12 672.28L342.03 822.48C325.14 832.25 304.31 832.25 287.42 822.48L29.1802 673.35L27.3 672.28C21.4 668.88 16.3102 664.47 12.1902 659.35C4.41019 649.78 0.0100098 637.68 0.0100098 624.96V324.56C0.0100098 305.04 10.41 286.98 27.3 277.24L287.42 127.01C304.31 117.26 325.14 117.26 342.03 127.01L602.12 277.24C619.01 286.98 629.44 305.04 629.44 324.56Z" fill="#2AB871"/>
<path d="M12.2202 646.42V346C12.2202 326.48 22.63 308.44 39.53 298.68L299.62 148.47C316.52 138.71 337.35 138.71 354.25 148.47L614.34 298.68C619.18 301.47 623.46 304.96 627.14 308.95C623.21 295.75 614.39 284.3 602.13 277.22L342.03 127.02C325.13 117.26 304.31 117.26 287.4 127.02L27.3201 277.22C10.4201 286.98 0.0100098 305.02 0.0100098 324.54V624.95C0.0100098 638.89 5.34002 652.05 14.52 662C13.03 657.01 12.2202 651.78 12.2202 646.42Z" fill="#2F7D57"/>
<path d="M629.44 505.27V204.84C629.44 185.32 619.03 167.29 602.13 157.53L342.04 7.32C325.13 -2.44 304.3 -2.44 287.39 7.32L27.3101 157.52C10.4101 167.28 0 185.32 0 204.83V505.26C0 524.78 10.4101 542.81 27.3101 552.57L287.39 702.77C304.3 712.53 325.13 712.53 342.04 702.77L602.12 552.57C619.03 542.82 629.44 524.79 629.44 505.27Z" fill="url(#paint0_linear_552_1759)"/>
<path d="M4.14014 509.4V208.99C4.14014 189.47 14.5502 171.43 31.4502 161.67L291.54 11.46C308.44 1.7 329.26 1.7 346.17 11.46L606.26 161.67C609.56 163.58 612.61 165.81 615.38 168.3C611.6 164.1 607.15 160.44 602.12 157.53L342.03 7.32C325.13 -2.44 304.31 -2.44 287.4 7.32L27.3201 157.52C10.4201 167.28 0.0100098 185.32 0.0100098 204.84V505.25C0.0100098 520.96 6.7602 535.7 18.2002 545.94C9.2902 536.06 4.14014 523.1 4.14014 509.4Z" fill="white"/>
<path opacity="0.5" d="M614.294 190.78C615.478 195.31 616.095 200.03 616.095 204.84V505.25C616.095 524.77 605.91 542.81 589.376 552.57L334.913 702.78C318.379 712.54 298.01 712.54 281.465 702.78L27.0032 552.57C21.6712 549.42 17.0142 545.41 13.1301 540.77C16.7403 554.62 25.5846 566.67 38.049 574.03L292.511 724.24C309.046 734 329.425 734 345.959 724.24L600.421 574.03C616.956 564.27 627.14 546.23 627.14 526.71V226.3C627.15 213.07 622.454 200.53 614.294 190.78Z" fill="#2A8C5B"/>
<path d="M311.69 145.93H330.44L344.39 191.69H331.27L328.71 182.67H313.48L310.86 191.69H297.74L311.69 145.93ZM325.58 171.78L321.1 156.1L316.56 171.78H325.58Z" fill="#434B5A"/>
<path d="M351.76 145.93H364.56V191.69H351.76V145.93Z" fill="#434B5A"/>
<path d="M110.29 233.61V239.69H127.44V250.57H110.29V257.61H130.13V268.49H97.49V222.73H130.13V233.61H110.29Z" fill="#434B5A"/>
<path d="M149.71 245.32L135.95 222.73H150.99L158.48 235.27L165.97 222.73H181.01L167.25 245.32L181.71 268.49H166.67L158.48 255.18L150.29 268.49H135.25L149.71 245.32Z" fill="#434B5A"/>
<path d="M225.87 233.99V241.8C225.87 249.16 221.9 253.06 214.41 253.06H201.87V268.48H189.07V222.72H214.41C221.9 222.73 225.87 226.63 225.87 233.99ZM210.51 242.18C212.43 242.18 213.07 241.54 213.07 239.68V236.1C213.07 234.24 212.43 233.6 210.51 233.6H201.87V242.18H210.51Z" fill="#434B5A"/>
<path d="M233.55 222.73H246.35V257.61H265.55V268.49H233.55V222.73Z" fill="#434B5A"/>
<path d="M310.35 233.35V257.86C310.35 265.22 306.38 269.12 298.89 269.12H283.72C276.23 269.12 272.26 265.22 272.26 257.86V233.35C272.26 225.99 276.23 222.09 283.72 222.09H298.89C306.38 222.09 310.35 225.99 310.35 233.35ZM294.99 232.97H287.63C285.71 232.97 285.07 233.61 285.07 235.47V255.76C285.07 257.62 285.71 258.26 287.63 258.26H294.99C296.91 258.26 297.55 257.62 297.55 255.76V235.47C297.55 233.61 296.91 232.97 294.99 232.97Z" fill="#434B5A"/>
<path d="M319.95 222.73H345.48C352.97 222.73 356.94 226.63 356.94 233.99V241.54C356.94 246.66 355.02 250.12 351.31 251.72L362.25 268.49H347.34L337.16 252.81H332.74V268.49H319.94V222.73H319.95ZM341.58 241.93C343.5 241.93 344.14 241.29 344.14 239.43V236.1C344.14 234.24 343.5 233.6 341.58 233.6H332.75V241.92H341.58V241.93Z" fill="#434B5A"/>
<path d="M380.68 222.73H399.43L413.38 268.49H400.26L397.7 259.47H382.47L379.85 268.49H366.73L380.68 222.73ZM394.57 248.58L390.09 232.9L385.55 248.58H394.57Z" fill="#434B5A"/>
<path d="M425.23 233.61H412.75V222.73H450.51V233.61H438.03V268.49H425.23V233.61Z" fill="#434B5A"/>
<path d="M457.87 222.73H470.67V268.49H457.87V222.73Z" fill="#434B5A"/>
<path d="M518.34 233.35V257.86C518.34 265.22 514.37 269.12 506.88 269.12H491.71C484.22 269.12 480.25 265.22 480.25 257.86V233.35C480.25 225.99 484.22 222.09 491.71 222.09H506.88C514.38 222.09 518.34 225.99 518.34 233.35ZM502.99 232.97H495.63C493.71 232.97 493.07 233.61 493.07 235.47V255.76C493.07 257.62 493.71 258.26 495.63 258.26H502.99C504.91 258.26 505.55 257.62 505.55 255.76V235.47C505.55 233.61 504.91 232.97 502.99 232.97Z" fill="#434B5A"/>
<path d="M527.82 222.73H540.17L555.02 247.18V222.73H567.82V268.49H555.47L540.62 244.04V268.49H527.82V222.73Z" fill="#434B5A"/>
<path d="M317.078 635.552C312.014 635.552 308.153 634.128 305.494 631.279C302.835 628.367 301.506 624.221 301.506 618.84V613.618H311.381V619.6C311.381 623.904 313.185 626.057 316.794 626.057C320.402 626.057 322.206 623.904 322.206 619.6V604.692C322.206 600.324 320.402 598.14 316.794 598.14C313.185 598.14 311.381 600.324 311.381 604.692V605.262H301.506L303.405 568.134H330.942V577.63H312.711L311.856 593.487H312.046C314.008 590.259 317.015 588.645 321.067 588.645C324.865 588.645 327.745 589.942 329.707 592.538C331.67 595.133 332.651 598.9 332.651 603.837V618.84C332.651 624.221 331.322 628.367 328.663 631.279C326.004 634.128 322.143 635.552 317.078 635.552Z" fill="#434B5A"/>
<path d="M342.27 446.97C340.08 442.5 339.32 437.36 340.33 432.38L343.87 414.17C346.99 398.32 357.95 385.33 372.46 379.34C374.15 373.44 376.17 368.04 378.36 362.89C360.15 344.17 333.33 334.39 305.59 339.03C272.36 344.6 247.24 369.31 239.31 399.92C180.7 416.79 174.97 430.45 176.66 440.65C181.72 470.75 281.56 457.35 324.31 450.18C329.54 449.33 335.61 448.24 342.27 446.97ZM202.88 436.35C208.7 432.98 219.24 428.17 236.78 422.69C236.95 426.4 237.2 430.11 237.88 433.99C238.13 435.42 238.47 436.69 238.81 438.12C222.1 438.45 210.05 437.7 202.88 436.35ZM312 377.4C293.95 380.43 279.62 394.6 276.33 412.56C275.74 416.18 272.87 418.88 269.41 419.39C268.57 419.56 267.47 419.56 266.54 419.39C261.99 418.55 258.87 414.16 259.8 409.61C264.27 384.56 284.17 365 309.21 360.79C313.85 360.03 318.15 363.07 318.91 367.7C319.67 372.26 316.63 376.64 312 377.4Z" fill="#2AB871"/>
<path d="M367.57 459.12C355.43 461.82 341.93 464.34 327.1 466.88C299.78 471.43 277.01 474.13 257.95 475.48C276.17 495.72 303.99 506.51 332.83 501.7C349.02 499 363.35 491.67 374.66 481.38C374.15 477.08 374.15 472.61 374.66 468.06L374.91 466.03C373.22 463.75 371.87 461.31 371.12 458.52L367.57 459.12Z" fill="#2AB871"/>
<path d="M192.76 369.21L190.85 378.56C190.04 382.51 194.26 385.57 197.76 383.58L206.06 378.87C207.07 378.3 208.3 378.3 209.3 378.87L217.6 383.58C221.1 385.57 225.32 382.51 224.51 378.56L222.59 369.21C222.36 368.08 222.74 366.91 223.59 366.13L230.64 359.68C233.61 356.96 232.01 352 228 351.55L218.51 350.49C217.36 350.36 216.37 349.64 215.89 348.58L211.94 339.88C210.28 336.21 205.06 336.21 203.4 339.88L199.46 348.58C198.98 349.64 197.98 350.36 196.84 350.49L187.35 351.55C183.35 352 181.73 356.96 184.71 359.68L191.76 366.13C192.61 366.9 192.99 368.08 192.76 369.21Z" fill="#75EBB0"/>
<path d="M366.34 317.6L364.43 326.92C363.62 330.85 367.82 333.9 371.31 331.92L379.58 327.23C380.58 326.66 381.81 326.66 382.81 327.23L391.08 331.92C394.57 333.9 398.77 330.85 397.96 326.92L396.05 317.6C395.82 316.48 396.2 315.3 397.05 314.54L404.07 308.12C407.03 305.41 405.43 300.47 401.44 300.02L391.99 298.96C390.85 298.83 389.85 298.11 389.38 297.06L385.45 288.4C383.79 284.75 378.6 284.75 376.94 288.4L373.01 297.06C372.53 298.11 371.54 298.83 370.4 298.96L360.95 300.02C356.96 300.47 355.36 305.41 358.32 308.12L365.34 314.54C366.2 315.31 366.58 316.48 366.34 317.6Z" fill="#75EBB0"/>
<path d="M351.87 540.09L349.96 549.41C349.15 553.34 353.35 556.39 356.84 554.41L365.11 549.72C366.11 549.15 367.34 549.15 368.34 549.72L376.61 554.41C380.1 556.39 384.3 553.34 383.49 549.41L381.58 540.09C381.35 538.97 381.73 537.79 382.58 537.03L389.6 530.61C392.56 527.9 390.96 522.96 386.97 522.51L377.52 521.45C376.38 521.32 375.38 520.6 374.91 519.55L370.98 510.89C369.32 507.24 364.13 507.24 362.47 510.89L358.54 519.55C358.06 520.6 357.07 521.32 355.93 521.45L346.48 522.51C342.49 522.96 340.89 527.9 343.85 530.61L350.87 537.03C351.72 537.79 352.1 538.96 351.87 540.09Z" fill="#75EBB0"/>
<path d="M342.27 446.97C340.08 442.5 339.32 437.36 340.33 432.38L343.87 414.17C346.99 398.32 357.95 385.33 372.46 379.34C374.15 373.44 376.17 368.04 378.36 362.89C360.15 344.17 333.33 334.39 305.59 339.03C272.36 344.6 247.24 369.31 239.31 399.92C180.7 416.79 174.97 430.45 176.66 440.65C181.72 470.75 281.56 457.35 324.31 450.18C329.54 449.33 335.61 448.24 342.27 446.97ZM202.88 436.35C208.7 432.98 219.24 428.17 236.78 422.69C236.95 426.4 237.2 430.11 237.88 433.99C238.13 435.42 238.47 436.69 238.81 438.12C222.1 438.45 210.05 437.7 202.88 436.35ZM312 377.4C293.95 380.43 279.62 394.6 276.33 412.56C275.74 416.18 272.87 418.88 269.41 419.39C268.57 419.56 267.47 419.56 266.54 419.39C261.99 418.55 258.87 414.16 259.8 409.61C264.27 384.56 284.17 365 309.21 360.79C313.85 360.03 318.15 363.07 318.91 367.7C319.67 372.26 316.63 376.64 312 377.4Z" stroke="#231F20" stroke-width="7.7487" stroke-miterlimit="10" stroke-linecap="round" stroke-linejoin="round"/>
<path d="M367.57 459.12C355.43 461.82 341.93 464.34 327.1 466.88C299.78 471.43 277.01 474.13 257.95 475.48C276.17 495.72 303.99 506.51 332.83 501.7C349.02 499 363.35 491.67 374.66 481.38C374.15 477.08 374.15 472.61 374.66 468.06L374.91 466.03C373.22 463.75 371.87 461.31 371.12 458.52L367.57 459.12Z" stroke="#231F20" stroke-width="7.7487" stroke-miterlimit="10" stroke-linecap="round" stroke-linejoin="round"/>
<path d="M412.7 484.04C411.41 484.94 409.66 484.6 408.8 483.28C407.28 480.98 404.93 477.07 402.7 472.11L391.4 469.91C389.38 488.11 399.33 505.45 403.31 511.53C404.17 512.85 405.92 513.19 407.21 512.29C413.17 508.14 428.93 495.81 433.89 478.18L422.59 475.98C418.62 479.74 414.97 482.48 412.7 484.04Z" stroke="#231F20" stroke-width="7.7487" stroke-miterlimit="10" stroke-linecap="round" stroke-linejoin="round"/>
<path d="M468.08 409.04L467.421 408.62C475.421 360.22 454.3 330.1 446.13 320.6C444.38 318.55 441.48 317.99 439.08 319.23C427.98 324.98 397.07 344.98 386.38 392.85L385.61 392.99C372.93 395.05 362.901 404.79 360.451 417.41L356.921 435.58C356.131 439.66 359.65 443.27 363.75 442.62L386.76 438.82L387.16 452.41C387.27 455.66 389.63 458.42 392.81 459.04L436.61 467.56C439.83 468.19 443.05 466.51 444.33 463.53L449.79 451.08L469.73 463.23C473.28 465.37 477.911 463.34 478.701 459.26L482.23 441.09C484.7 428.5 479.03 415.71 468.08 409.04ZM445.59 388.64C443.9 397.33 435.48 403 426.8 401.31C418.08 399.61 412.4 391.2 414.09 382.51C415.78 373.82 424.201 368.11 432.931 369.8C441.611 371.5 447.28 379.95 445.59 388.64Z" stroke="#231F20" stroke-width="7.7487" stroke-miterlimit="10" stroke-linecap="round" stroke-linejoin="round"/>
<path d="M192.76 369.21L190.85 378.56C190.04 382.51 194.26 385.57 197.76 383.58L206.06 378.87C207.07 378.3 208.3 378.3 209.3 378.87L217.6 383.58C221.1 385.57 225.32 382.51 224.51 378.56L222.59 369.21C222.36 368.08 222.74 366.91 223.59 366.13L230.64 359.68C233.61 356.96 232.01 352 228 351.55L218.51 350.49C217.36 350.36 216.37 349.64 215.89 348.58L211.94 339.88C210.28 336.21 205.06 336.21 203.4 339.88L199.46 348.58C198.98 349.64 197.98 350.36 196.84 350.49L187.35 351.55C183.35 352 181.73 356.96 184.71 359.68L191.76 366.13C192.61 366.9 192.99 368.08 192.76 369.21Z" stroke="#231F20" stroke-width="7.7487" stroke-miterlimit="10" stroke-linecap="round" stroke-linejoin="round"/>
<path d="M366.34 317.6L364.43 326.92C363.62 330.85 367.82 333.9 371.31 331.92L379.58 327.23C380.58 326.66 381.81 326.66 382.81 327.23L391.08 331.92C394.57 333.9 398.77 330.85 397.96 326.92L396.05 317.6C395.82 316.48 396.2 315.3 397.05 314.54L404.07 308.12C407.03 305.41 405.43 300.47 401.44 300.02L391.99 298.96C390.85 298.83 389.85 298.11 389.38 297.06L385.45 288.4C383.79 284.75 378.6 284.75 376.94 288.4L373.01 297.06C372.53 298.11 371.54 298.83 370.4 298.96L360.95 300.02C356.96 300.47 355.36 305.41 358.32 308.12L365.34 314.54C366.2 315.31 366.58 316.48 366.34 317.6Z" stroke="#231F20" stroke-width="7.7487" stroke-miterlimit="10" stroke-linecap="round" stroke-linejoin="round"/>
<path d="M351.87 540.09L349.96 549.41C349.15 553.34 353.35 556.39 356.84 554.41L365.11 549.72C366.11 549.15 367.34 549.15 368.34 549.72L376.61 554.41C380.1 556.39 384.3 553.34 383.49 549.41L381.58 540.09C381.35 538.97 381.73 537.79 382.58 537.03L389.6 530.61C392.56 527.9 390.96 522.96 386.97 522.51L377.52 521.45C376.38 521.32 375.38 520.6 374.91 519.55L370.98 510.89C369.32 507.24 364.13 507.24 362.47 510.89L358.54 519.55C358.06 520.6 357.07 521.32 355.93 521.45L346.48 522.51C342.49 522.96 340.89 527.9 343.85 530.61L350.87 537.03C351.72 537.79 352.1 538.96 351.87 540.09Z" stroke="#231F20" stroke-width="7.7487" stroke-miterlimit="10" stroke-linecap="round" stroke-linejoin="round"/>
<path d="M412.7 484.04C411.41 484.94 409.66 484.6 408.8 483.28C407.28 480.98 404.93 477.07 402.7 472.11L391.4 469.91C389.38 488.11 399.33 505.45 403.31 511.53C404.17 512.85 405.92 513.19 407.21 512.29C413.17 508.14 428.93 495.81 433.89 478.18L422.59 475.98C418.62 479.74 414.97 482.48 412.7 484.04Z" stroke="#231F20" stroke-width="7.7487" stroke-miterlimit="10" stroke-linecap="round" stroke-linejoin="round"/>
<path d="M468.08 409.04L467.421 408.62C475.421 360.22 454.3 330.1 446.13 320.6C444.38 318.55 441.48 317.99 439.08 319.23C427.98 324.98 397.07 344.98 386.38 392.85L385.61 392.99C372.93 395.05 362.901 404.79 360.451 417.41L356.921 435.58C356.131 439.66 359.65 443.27 363.75 442.62L386.76 438.82L387.16 452.41C387.27 455.66 389.63 458.42 392.81 459.04L436.61 467.56C439.83 468.19 443.05 466.51 444.33 463.53L449.79 451.08L469.73 463.23C473.28 465.37 477.911 463.34 478.701 459.26L482.23 441.09C484.7 428.5 479.03 415.71 468.08 409.04ZM445.59 388.64C443.9 397.33 435.48 403 426.8 401.31C418.08 399.61 412.4 391.2 414.09 382.51C415.78 373.82 424.201 368.11 432.931 369.8C441.611 371.5 447.28 379.95 445.59 388.64Z" stroke="#231F20" stroke-width="7.7487" stroke-miterlimit="10" stroke-linecap="round" stroke-linejoin="round"/>
<defs>
<linearGradient id="paint0_linear_552_1759" x1="70.9364" y1="111.27" x2="558.502" y2="598.836" gradientUnits="userSpaceOnUse">
<stop stop-color="#EEF1F7"/>
<stop offset="1" stop-color="white"/>
</linearGradient>
</defs>
</svg>
